<?xml version="1.0" standalone="no"?><svg xmlns="http://www.w3.org/2000/svg" viewBox="0 0 1440 320"><path fill="#00a8a8" fill-opacity="1" d="M0,288L20,272C40,256,80,224,120,229.3C160,235,200,277,240,277.3C280,277,320,235,360,218.7C400,203,440,213,480,213.3C520,213,560,203,600,181.3C640,160,680,128,720,133.3C760,139,800,181,840,208C880,235,920,245,960,256C1000,267,1040,277,1080,261.3C1120,245,1160,203,1200,170.7C1240,139,1280,117,1320,96C1360,75,1400,53,1420,42.7L1440,32L1440,320L1420,320C1400,320,1360,320,1320,320C1280,320,1240,320,1200,320C1160,320,1120,320,1080,320C1040,320,1000,320,960,320C920,320,880,320,840,320C800,320,760,320,720,320C680,320,640,320,600,320C560,320,520,320,480,320C440,320,400,320,360,320C320,320,280,320,240,320C200,320,160,320,120,320C80,320,40,320,20,320L0,320Z"></path></svg>